<?xml version="1.0" encoding="UTF-8"?>
<svg width="79" height="128" xmlns="http://www.w3.org/2000/svg" xmlns:svg="http://www.w3.org/2000/svg">
 <!-- Created with SVG-edit - http://svg-edit.googlecode.com/ -->
 <title>msm-owl</title>
 <g>
  <title>Layer 1</title>
  <path stroke="#000000" id="svg_1" d="m17.140806,26.799516c0,-13.502845 12.08283,-24.440146 26.999912,-24.440146c14.917072,0 26.999912,10.937301 26.999912,24.440146c0,6.751417 -0.111238,23.883474 -5.811236,23.513469c-5.699998,-0.370005 -13.264619,0.926665 -20.723166,0.926665c-7.458547,0 -17.932631,2.057865 -22.817978,-2.364315c-4.885347,-4.422179 -4.647444,-15.324403 -4.647444,-22.07582z" stroke-linecap="null" stroke-linejoin="null" stroke-dasharray="null" stroke-width="0" fill="#7f7f7f"/>
  <path stroke="#000000" transform="rotate(3.7459206581115723 40.9143295288081,78.96314239501952) " id="svg_4" d="m8.754717,73.482669c0,-15.315465 3.598368,-29.175968 9.417955,-39.207604c5.819587,-10.031636 15.531209,-0.063825 24.416067,-0.063825c8.884868,0 15.254849,-9.9678 21.074426,0.063836c5.819587,10.031625 14.118754,40.41699 6.076323,58.612297c-8.04243,18.195307 -13.330941,18.006919 -28.680019,19.420058c-15.349078,1.413128 -18.840543,10.271803 -19.841706,11.712375c-1.001163,1.440583 -3.47693,7.084783 -6.386724,2.06897c-1.454902,-2.507906 -1.940691,-5.432123 -1.966216,-8.226182c-0.025515,-2.794058 0.409253,-5.457958 0.795477,-7.445251c0.772456,-3.974587 2.829723,-12.560044 4.949377,-15.675737c1.059827,-1.557841 6.583113,-7.467122 11.028898,-14.703495c4.445776,-7.236384 4.245614,-12.583787 4.167326,-13.017861c-0.156567,-0.868148 -1.702222,7.421563 -5.955589,13.983302c-4.253357,6.561739 -9.418014,11.537206 -10.498168,13.675335c-1.080154,2.138129 -4.238812,12.552608 -4.728948,16.428555c-0.490146,3.875947 -3.592734,-30.089981 -3.702498,-31.954289c-0.109764,-1.864341 -0.165983,-3.756039 -0.165983,-5.670483z" stroke-linecap="null" stroke-linejoin="null" stroke-dasharray="null" stroke-width="0" fill="#7f7f7f"/>
  <path stroke="#000000" id="svg_8" d="m23.8379,30.40088c0,-5.86706 2.34961,-11.17675 6.1496,-15.01968c3.79999,-3.84293 9.25058,2.89119 15.05209,2.89119c5.80151,0 10.85165,-6.73412 14.65164,-2.89119c3.79999,3.84293 6.1496,9.15262 6.1496,15.01968c0,11.73413 -9.39845,21.23877 -21.00147,21.23877c-11.60302,0 -21.00146,-9.50464 -21.00146,-21.23877z" stroke-linecap="null" stroke-linejoin="null" stroke-dasharray="null" stroke-width="0" fill="#ffffff"/>
  <ellipse stroke="#000000" ry="3.440918" rx="3.440918" id="svg_10" cy="36.729009" cx="32.024907" stroke-linecap="null" stroke-linejoin="null" stroke-dasharray="null" stroke-width="2" fill="#ffffff"/>
  <path stroke="#000000" id="svg_14" d="m41.734935,42.771522c0,-3.958562 1.486753,-3.537714 3.322262,-3.537714c1.835509,0 3.32227,-0.420848 3.32227,3.537714c0,1.979277 -0.990453,2.681782 -1.706304,4.000599c-0.715843,1.318816 -1.092404,3.173479 -1.615966,3.164383c-0.523561,-0.009096 -0.502468,-0.952739 -1.103597,-2.249167c-0.601129,-1.296428 -2.218666,-2.936538 -2.218666,-4.915815z" stroke-linecap="null" stroke-linejoin="null" stroke-dasharray="null" stroke-width="0" fill="#7f7f7f"/>
  <path stroke="#000000" transform="rotate(-133.23580932617188 64.90083312988281,6.568406581878658) " id="svg_17" d="m61.42631,2.912474c0,-5.24431 -0.87079,-3.04294 1.48915,-3.04294c2.35994,0 5.61689,-2.86535 5.61689,2.37896c0,2.62215 -0.6638,4.95054 -1.58418,6.69771c-0.92037,1.74717 -3.35956,5.11433 -4.03271,5.10228c-0.67315,-0.01205 1.34272,-3.37734 0.56984,-5.09485c-0.77288,-1.71751 -2.05899,-3.41901 -2.05899,-6.04116z" stroke-linecap="null" stroke-linejoin="null" stroke-dasharray="null" stroke-width="0" fill="#7f7f7f"/>
  <path stroke="#000000" id="svg_19" transform="rotate(132.64930725097656 22.45111846923828,7.615578174591064) " d="m26.047692,3.959647c0,-5.24431 0.90138,-3.04294 -1.541462,-3.04294c-2.442842,0 -5.814205,-2.86535 -5.814205,2.37896c0,2.62215 0.687119,4.95054 1.639831,6.69771c0.952702,1.74717 3.477578,5.11433 4.174375,5.10228c0.696797,-0.01205 -1.389888,-3.37734 -0.589858,-5.09485c0.80003,-1.71751 2.13132,-3.41901 2.13132,-6.04116z" stroke-linecap="null" stroke-linejoin="null" stroke-dasharray="null" stroke-width="0" fill="#7f7f7f"/>
  <ellipse id="svg_23" stroke="#000000" ry="3.440918" rx="3.440918" cy="36.254399" cx="56.941899" stroke-linecap="null" stroke-linejoin="null" stroke-dasharray="null" stroke-width="2" fill="#ffffff"/>
  <path id="svg_31" stroke="#000000" d="m48.098106,120.198262c0.50239,2.6176 1.39555,-3.19928 -0.00001,-5.31829c-1.39556,-2.11901 -2.34455,-2.2852 -3.88934,-2.17431c-1.54477,0.11088 -1.80458,-0.02779 -2.67949,0.83098c-0.8749,0.85878 -0.01825,-3.55947 -2.58608,-2.81159c-2.56783,0.74789 -1.78632,0.99718 -1.82389,0.98342c-0.03757,-0.01374 0.64919,1.83369 0.89317,2.32676c0.24398,0.49306 -1.24047,1.38658 -1.78045,2.6193c-0.53997,1.23271 1.71845,5.52572 1.78045,4.85954c0.062,-0.66618 -0.26186,-2.04752 0.43824,-3.27881c0.7001,-1.2313 0.44138,-0.62699 2.01795,-1.66553c1.57658,-1.03855 1.60061,0.42925 2.90277,3.78097c1.30217,3.35173 1.32149,-2.52074 1.11646,-4.15491c-0.20504,-1.63418 3.10782,1.38487 3.61022,4.00247z" stroke-linecap="null" stroke-linejoin="null" stroke-dasharray="null" stroke-width="0" fill="#7f7f7f"/>
  <path id="svg_32" stroke="#000000" d="m60.643506,119.466187c0.50239,2.6176 1.39555,-3.19928 -0.00001,-5.31829c-1.39556,-2.11901 -2.34455,-2.2852 -3.88934,-2.17431c-1.54477,0.11088 -1.80458,-0.02779 -2.67949,0.83098c-0.8749,0.85878 -0.01825,-3.55947 -2.58608,-2.81159c-2.56783,0.74789 -1.78632,0.99718 -1.82389,0.98342c-0.03757,-0.01374 0.64919,1.83369 0.89317,2.32676c0.24398,0.49306 -1.24047,1.38658 -1.78045,2.6193c-0.53997,1.23271 1.71845,5.52572 1.78045,4.85954c0.062,-0.66618 -0.26186,-2.04752 0.43824,-3.27881c0.7001,-1.2313 0.44138,-0.62699 2.01795,-1.66553c1.57658,-1.03855 1.60061,0.42925 2.90277,3.78097c1.30217,3.35173 1.32149,-2.52074 1.11646,-4.15491c-0.20504,-1.63418 3.10782,1.38487 3.61022,4.00247z" stroke-linecap="null" stroke-linejoin="null" stroke-dasharray="null" stroke-width="0" fill="#7f7f7f"/>
 </g>
</svg>