<?xml version="1.0" encoding="UTF-8" standalone="no"?>
<svg
   xmlns:dc="http://purl.org/dc/elements/1.1/"
   xmlns:cc="http://creativecommons.org/ns#"
   xmlns:rdf="http://www.w3.org/1999/02/22-rdf-syntax-ns#"
   xmlns:svg="http://www.w3.org/2000/svg"
   xmlns="http://www.w3.org/2000/svg"
   xmlns:sodipodi="http://sodipodi.sourceforge.net/DTD/sodipodi-0.dtd"
   xmlns:inkscape="http://www.inkscape.org/namespaces/inkscape"
   width="79"
   height="128"
   version="1.1"
   id="svg3739"
   sodipodi:docname="msm-owl-shape.svg"
   inkscape:version="0.92.2 (5c3e80d, 2017-08-06)">
  <metadata
     id="metadata3745">
    <rdf:RDF>
      <cc:Work
         rdf:about="">
        <dc:format>image/svg+xml</dc:format>
        <dc:type
           rdf:resource="http://purl.org/dc/dcmitype/StillImage" />
        <dc:title>msm-owl</dc:title>
      </cc:Work>
    </rdf:RDF>
  </metadata>
  <defs
     id="defs3743" />
  <sodipodi:namedview
     pagecolor="#ffffff"
     bordercolor="#666666"
     borderopacity="1"
     objecttolerance="10"
     gridtolerance="10"
     guidetolerance="10"
     inkscape:pageopacity="0"
     inkscape:pageshadow="2"
     inkscape:window-width="1074"
     inkscape:window-height="810"
     id="namedview3741"
     showgrid="false"
     inkscape:pagecheckerboard="true"
     inkscape:zoom="4.1875"
     inkscape:cx="46.737468"
     inkscape:cy="61.379629"
     inkscape:window-x="2287"
     inkscape:window-y="61"
     inkscape:window-maximized="0"
     inkscape:current-layer="svg3739" />
  <!-- Created with SVG-edit - http://svg-edit.googlecode.com/ -->
  <title
     id="title3723">msm-owl</title>
  <path
     style="fill:#7f7f7f;stroke:#000000;stroke-width:0;stroke-dasharray:none"
     d="m 44.314453,0.2109375 c -6.541906,0 -12.565366,1.9645925 -17.382812,5.265625 C 25.009509,3.8617531 22.897552,2.8595267 21.007812,2.3925781 18.9629,1.8872776 14.525826,1.4435708 14.035156,1.9882812 c -0.490668,0.5447102 3.628622,1.3252382 4.392578,3.1582032 0.712226,1.7088448 1.102485,3.7587852 2.804688,5.5351566 -3.466634,4.230271 -5.517578,9.44695 -5.517578,15.095703 0,3.570514 -0.06183,8.250332 0.542968,12.603515 -4.839994,9.358538 -8.1178669,21.12665 -8.9746089,34.050782 -0.1324844,1.998565 -0.2037978,3.977877 -0.2167969,5.93164 -0.012996,1.95373 0.9168222,37.624079 1.703125,33.611329 0.7862937,-4.01277 4.8431408,-14.669873 6.1328128,-16.828126 1.289672,-2.158252 7.093141,-6.997284 12.042968,-13.55664 4.949837,-6.559352 7.158258,-15.108405 7.263672,-14.191406 0.0527,0.458498 -0.106744,6.054195 -5.30664,13.304687 -5.199906,7.250478 -11.445799,13.039894 -12.673828,14.59375 -2.456057,3.107723 -5.224879,11.932865 -6.3164066,16.029295 -0.5457599,2.04823 -1.1890759,4.79823 -1.3554688,7.7168 -0.1663772,2.91858 0.1455095,6.00315 1.5097654,8.7207 2.728499,5.43509 5.734672,-0.28719 6.892578,-1.72265 1.157907,-1.43545 5.461665,-10.44301 21.783204,-10.86914 16.32154,-0.42614 21.898308,0.13068 31.658203,-18.314458 1.896224,-3.583655 3.168376,-7.689676 3.953125,-12.056641 -2.181711,-6.5818 -5.23767,-14.747814 -5.23767,-14.747814 l 5.641966,12.036877 C 76.45743,69.227486 74.317526,54.627237 71.402344,44.435547 c 1.462069,-5.775569 1.511718,-14.290507 1.511718,-18.658203 0,-6.186748 -2.456119,-11.860015 -6.542968,-16.2812502 1.69103,-1.7903767 2.085425,-3.815675 2.798828,-5.5136719 0.764619,-1.8198993 4.826787,-2.695099 4.347656,-3.2167969 -0.479131,-0.52169788 -4.849125,0.0314406 -6.865234,0.5820312 -1.94026,0.5298674 -4.120788,1.6359047 -6.085938,3.3925782 C 55.950907,1.8855899 50.354518,0.2109375 44.314453,0.2109375 Z M 32.646484,12.609375 c 3.609965,0.285328 8.010214,4.248047 12.619141,4.248047 6.14524,0 11.494399,-7.0457708 15.519531,-3.025391 4.025132,4.020379 6.515625,9.576869 6.515625,15.714844 0,12.275961 -9.955616,22.220703 -22.246093,22.220703 -12.290477,0 -22.246094,-9.944742 -22.246094,-22.220703 0,-6.137975 2.48854,-11.694465 6.513672,-15.714844 1.006284,-1.005095 2.120896,-1.317767 3.324218,-1.222656 z m 11.267578,26.173828 c -1.263157,0.07029 -2.148437,0.599064 -2.148437,3.705078 -10e-7,2.070671 1.712865,3.786286 2.349609,5.142578 0.636745,1.356292 0.613389,2.342042 1.167969,2.351563 0.554582,0.0096 0.954636,-1.928879 1.712891,-3.308594 0.758264,-1.379713 1.80664,-2.114876 1.80664,-4.185547 0,-4.141351 -1.575271,-3.701172 -3.519531,-3.701172 -0.486066,0 -0.948087,-0.02733 -1.369141,-0.0039 z"
     id="svg_4"
     inkscape:export-filename="I:\Projects\eclipse-workspace\garmin-m8m\m8m\resources\images\owl-msm.png"
     inkscape:export-xdpi="96"
     inkscape:export-ydpi="96"
     inkscape:connector-curvature="0"
     sodipodi:nodetypes="scccscscsccsccccccccssccccscssccscssssssccssccssc" />
</svg>
